<svg xmlns="http://www.w3.org/2000/svg" version="1.1" xmlns:xlink="http://www.w3.org/1999/xlink" xmlns:svgjs="http://svgjs.dev/svgjs" width="1500" height="1500" viewBox="0 0 1500 1500"><rect width="1500" height="1500" fill="#ffffff"></rect><g transform="matrix(0.6666666666666666,0,0,0.6666666666666666,248.97382335321453,218.43076923076922)"><svg viewBox="0 0 232 247" data-background-color="#231239" preserveAspectRatio="xMidYMid meet" height="1596" width="1500" xmlns="http://www.w3.org/2000/svg" xmlns:xlink="http://www.w3.org/1999/xlink"><g id="tight-bounds" transform="matrix(1,0,0,1,0.23807298205423422,-0.09999999999999432)"><svg viewBox="0 0 231.52385403589156 247.2" height="247.2" width="231.52385403589156"><g><svg viewBox="0 0 395.52 422.30008828741677" height="247.2" width="231.52385403589156"><g transform="matrix(1,0,0,1,0,272.99329048585474)"><svg viewBox="0 0 395.52 149.30679780156203" height="149.30679780156203" width="395.52"><g id="textblocktransform"><svg viewBox="0 0 395.52 149.30679780156203" height="149.30679780156203" width="395.52" id="textblock"><g><svg viewBox="0 0 395.52 149.30679780156203" height="149.30679780156203" width="395.52"><g transform="matrix(1,0,0,1,0,0)"><svg width="395.52" viewBox="173.85 -37.50000000000001 345.69999999999993 126" height="149.30679780156203" data-palette-color="#f4ab4f"><svg></svg><svg></svg><svg></svg><g class="wordmark-text-0" data-fill-palette-color="primary" id="text-0"><path transform="translate(206.65,0)" d="M43.05-37.5v14.7h-21.25v0 0c0 0 0 0.007 0 0.02 0 0.02 0 0.03 0 0.03v0 2.9c0 0.033 0 0.05 0 0.05v0 0h20.5v11.9h-20.5v0c0 0 0 0.017 0 0.05v0c0 1.133 0 2.073 0 2.82 0 0.753 0 1.497 0 2.23 0 0.733 0 1.667 0 2.8v0h-20.8c0-2.367 0-4.733 0-7.1 0-2.367 0-4.727 0-7.08 0-2.347 0-4.703 0-7.07 0-2.367 0-4.733 0-7.1v0c0-1.533 0-3.06 0-4.58 0-1.513 0-3.037 0-4.57v0zM65.6-14.8v0c0 0.033 0.01 0.057 0.03 0.07 0.013 0.02 0.037 0.03 0.07 0.03v0h19.5v14.7h-40.35c0-2.067 0-4.133 0-6.2 0-2.067 0-4.143 0-6.23 0-2.08 0-4.153 0-6.22 0-2.067 0-4.133 0-6.2v0c0-2.1 0-4.21 0-6.33 0-2.113 0-4.22 0-6.32v0h20.75c0 1.9 0 3.79 0 5.67 0 1.887 0 3.78 0 5.68 0 1.9 0 3.79 0 5.67 0 1.887 0 3.78 0 5.68zM107.6-37.5h-20.75c0 1.667 0 3.373 0 5.12 0 1.753 0 3.513 0 5.28 0 1.767 0 3.533 0 5.3v0c0 1.333 0 2.673 0 4.02 0 1.353 0 2.663 0 3.93v0c0 2.033 0.45 3.873 1.35 5.52 0.9 1.653 2.14 3.087 3.72 4.3 1.587 1.22 3.42 2.247 5.5 3.08 2.087 0.833 4.323 1.45 6.71 1.85 2.38 0.4 4.787 0.6 7.22 0.6v0c3.067 0 6.057-0.317 8.97-0.95 2.92-0.633 5.547-1.593 7.88-2.88 2.333-1.28 4.193-2.88 5.58-4.8 1.38-1.913 2.07-4.153 2.07-6.72v0c0-2.533 0-5.143 0-7.83 0-2.68 0-5.353 0-8.02 0-2.667 0-5.267 0-7.8v0h-20.75c0 1.833 0 3.6 0 5.3 0 1.7 0 3.35 0 4.95 0 1.6 0 3.183 0 4.75 0 1.567 0 3.15 0 4.75v0c0 0.967-0.383 1.7-1.15 2.2-0.767 0.5-1.633 0.75-2.6 0.75v0c-0.467 0-0.927-0.067-1.38-0.2-0.447-0.133-0.847-0.327-1.2-0.58-0.347-0.247-0.63-0.553-0.85-0.92-0.213-0.367-0.32-0.8-0.32-1.3v0c0-3.167 0-6.333 0-9.5 0-3.167 0-6.567 0-10.2zM179.9-37.5v14.7h-21.25v0 0c0 0 0 0.007 0 0.02 0 0.02 0 0.03 0 0.03v0 2.9c0 0.033 0 0.05 0 0.05v0 0h20.5v11.9h-20.5v0c0 0 0 0.017 0 0.05v0c0 1.133 0 2.073 0 2.82 0 0.753 0 1.497 0 2.23 0 0.733 0 1.667 0 2.8v0h-20.8c0-2.367 0-4.733 0-7.1 0-2.367 0-4.727 0-7.08 0-2.347 0-4.703 0-7.07 0-2.367 0-4.733 0-7.1v0c0-1.533 0-3.06 0-4.58 0-1.513 0-3.037 0-4.57v0zM223.75-37.5v14.7h-21.25v0 0c0 0 0 0.007 0 0.02 0 0.02 0 0.03 0 0.03v0 2.9c0 0.033 0 0.05 0 0.05v0 0h20.5v11.9h-20.5v0c0 0 0 0.017 0 0.05v0c0 1.133 0 2.073 0 2.82 0 0.753 0 1.497 0 2.23 0 0.733 0 1.667 0 2.8v0h-20.8c0-2.367 0-4.733 0-7.1 0-2.367 0-4.727 0-7.08 0-2.347 0-4.703 0-7.07 0-2.367 0-4.733 0-7.1v0c0-1.533 0-3.06 0-4.58 0-1.513 0-3.037 0-4.57v0zM256.4-37.5v0h22.7c-1.833 3.333-3.667 6.667-5.5 10-1.833 3.333-3.677 6.667-5.53 10-1.847 3.333-3.687 6.667-5.52 10v0 0 0 0 7.5h-20.75v-7.55 0 0 0c-1.167-2-2.327-4-3.48-6-1.147-2-2.297-4-3.45-6-1.147-2-2.303-3.993-3.47-5.98-1.167-1.98-2.327-3.97-3.48-5.97-1.147-2-2.303-4-3.47-6v0h24c0.433 1.6 0.857 3.2 1.27 4.8 0.42 1.6 0.847 3.2 1.28 4.8 0.433 1.6 0.85 3.2 1.25 4.8v0c0 0 0.007 0.007 0.02 0.02 0.02 0.02 0.03 0.03 0.03 0.03 0 0 0.007-0.01 0.02-0.03 0.02-0.013 0.03-0.02 0.03-0.02v0c0.333-1.2 0.667-2.4 1-3.6 0.333-1.2 0.677-2.4 1.03-3.6 0.347-1.2 0.687-2.4 1.02-3.6 0.333-1.2 0.667-2.4 1-3.6z" fill="#000000" fill-rule="nonzero" stroke="none" stroke-width="1" stroke-linecap="butt" stroke-linejoin="miter" stroke-miterlimit="10" stroke-dasharray="" stroke-dashoffset="0" font-family="none" font-weight="none" font-size="none" text-anchor="none" style="mix-blend-mode: normal" data-fill-palette-color="primary" opacity="1"></path><path transform="translate(186.3,43.5)" d="M43.05-37.5v14.7h-21.25v0 0c0 0 0 0.007 0 0.02 0 0.02 0 0.03 0 0.03v0 2.9c0 0.033 0 0.05 0 0.05v0 0h20.5v11.9h-20.5v0c0 0 0 0.017 0 0.05v0c0 1.133 0 2.073 0 2.82 0 0.753 0 1.497 0 2.23 0 0.733 0 1.667 0 2.8v0h-20.8c0-2.367 0-4.733 0-7.1 0-2.367 0-4.727 0-7.08 0-2.347 0-4.703 0-7.07 0-2.367 0-4.733 0-7.1v0c0-1.533 0-3.06 0-4.58 0-1.513 0-3.037 0-4.57v0zM44.85-37.5v0h36.15c2.933 0 5.367 0.523 7.3 1.57 1.933 1.053 3.383 2.403 4.35 4.05 0.967 1.653 1.45 3.397 1.45 5.23v0c0 1.9-0.523 3.74-1.57 5.52-1.053 1.787-2.637 3.247-4.75 4.38-2.12 1.133-4.763 1.7-7.93 1.7v0c-0.133 0-0.467 0-1 0-0.533 0-1.077 0-1.63 0-0.547 0-0.903 0-1.07 0v0c0 0 0 0.017 0 0.05 0 0.033 0 0.05 0 0.05v0c0 0 0 0.007 0 0.02 0 0.02 0 0.037 0 0.05 0 0.02 0 0.03 0 0.03v0h11.35l7.7 14.85h-23.75c-0.633-1.7-1.273-3.4-1.92-5.1-0.653-1.7-1.303-3.4-1.95-5.1-0.653-1.7-1.313-3.4-1.98-5.1v0h5.8c0.667 0 1.26-0.1 1.78-0.3 0.513-0.2 0.937-0.467 1.27-0.8 0.333-0.333 0.583-0.71 0.75-1.13 0.167-0.413 0.25-0.837 0.25-1.27v0c0-0.6-0.15-1.167-0.45-1.7-0.3-0.533-0.75-0.967-1.35-1.3-0.6-0.333-1.35-0.5-2.25-0.5v0h-5.7c0 0-0.007 0.007-0.02 0.02-0.02 0.02-0.037 0.03-0.05 0.03-0.02 0-0.03 0.017-0.03 0.05v0c0 2.167 0 3.757 0 4.77 0 1.02 0 1.653 0 1.9 0 0.253 0 0.347 0 0.28v0c0 0 0 0.173 0 0.52 0 0.353 0 0.83 0 1.43 0 0.6 0 1.283 0 2.05v0c0 1.1 0 2.317 0 3.65 0 1.333 0 2.657 0 3.97 0 1.32 0 2.53 0 3.63v0h-20.75c0-2.133 0-4.277 0-6.43 0-2.147 0-4.287 0-6.42 0-2.133 0-4.277 0-6.43 0-2.147 0-4.287 0-6.42v0c0-1.967 0-3.933 0-5.9 0-1.967 0-3.933 0-5.9zM117.1 0h-20.75c0-2.4 0-4.8 0-7.2 0-2.4 0-4.8 0-7.2 0-2.4 0-4.8 0-7.2 0-2.4 0-4.8 0-7.2v0c0-1.467 0-2.927 0-4.38 0-1.447 0-2.887 0-4.32v0h20.75c0 3.233 0 6.457 0 9.67 0 3.22 0 6.447 0 9.68v0c0 2 0 4.007 0 6.02 0 2.02 0 4.037 0 6.05 0 2.02 0 4.047 0 6.08zM161.15-37.5v12.6h-21.75c-0.033 0-0.05 0-0.05 0v0 0 2.75c0 0.033 0 0.057 0 0.07 0 0.02 0 0.03 0 0.03 0 0 0.01 0 0.03 0 0.013 0 0.02 0 0.02 0v0h21v7.05h-21c0 0-0.007 0-0.02 0-0.02 0-0.03 0.007-0.03 0.02 0 0.02 0 0.047 0 0.08v0 2.8 0 0c0 0 0.01 0 0.03 0 0.013 0 0.02 0 0.02 0v0h22.05v12.1h-42.35c0-1.967 0-3.943 0-5.93 0-1.98 0-3.953 0-5.92 0-1.967 0-3.943 0-5.93 0-1.98 0-3.963 0-5.95 0-1.98 0-3.953 0-5.92v0c0-1.3 0-2.61 0-3.93 0-1.313 0-2.62 0-3.92v0zM192.9-16.8v-20.7h19.25c0 1.233 0 2.477 0 3.73 0 1.247 0 2.493 0 3.74 0 1.253 0 2.503 0 3.75 0 1.253 0 2.503 0 3.75 0 1.253 0 2.513 0 3.78v0c0 3.133 0 6.257 0 9.37 0 3.12 0 6.247 0 9.38v0h-23.15l-6.3-18c0 0 0-0.01 0-0.03 0-0.013-0.007-0.02-0.02-0.02-0.02 0-0.037 0-0.05 0-0.02 0-0.03 0.007-0.03 0.02 0 0.02 0 0.03 0 0.03v0c0 2.933 0 5.933 0 9 0 3.067 0 6.067 0 9v0h-19.25c0-2.5 0-5 0-7.5 0-2.5 0-5 0-7.5 0-2.5 0-5 0-7.5 0-2.5 0-5 0-7.5 0-2.5 0-5 0-7.5v0h22.4l7.05 20.75v0c0 0 0.007 0 0.02 0 0.02 0 0.04 0 0.06 0 0.013 0 0.02-0.01 0.02-0.03 0-0.013 0-0.02 0-0.02zM214.15-37.5h29.8c3.133 0 5.91 0.34 8.33 1.02 2.413 0.687 4.487 1.63 6.22 2.83 1.733 1.2 3.15 2.59 4.25 4.17 1.1 1.587 1.917 3.28 2.45 5.08 0.533 1.8 0.8 3.633 0.8 5.5v0c0 2.367-0.423 4.673-1.27 6.92-0.853 2.253-2.173 4.28-3.96 6.08-1.78 1.8-4.06 3.233-6.84 4.3-2.787 1.067-6.113 1.6-9.98 1.6v0h-29.8c0-2.133 0-4.26 0-6.38 0-2.113 0-4.23 0-6.35 0-2.113 0-4.227 0-6.34 0-2.12 0-4.247 0-6.38v0c0-2 0-4.01 0-6.03 0-2.013 0-4.02 0-6.02zM239.95-23.1v0h-5.95c0 0-0.007 0-0.02 0-0.02 0-0.03 0-0.03 0 0 0 0 0.007 0 0.02 0 0.02 0 0.047 0 0.08v0 8.5c0 0.033 0 0.057 0 0.07 0 0.02 0 0.03 0 0.03 0 0 0.01 0 0.03 0 0.013 0 0.02 0 0.02 0v0h6.05c0.733 0 1.393-0.117 1.98-0.35 0.58-0.233 1.07-0.55 1.47-0.95 0.4-0.4 0.71-0.867 0.93-1.4 0.213-0.533 0.32-1.083 0.32-1.65v0c0-0.8-0.19-1.533-0.57-2.2-0.387-0.667-0.93-1.193-1.63-1.58-0.7-0.38-1.567-0.57-2.6-0.57zM293.6-22.6v0c5 0 9.183 0.217 12.55 0.65 3.367 0.433 6.05 1.107 8.05 2.02 2 0.92 3.433 2.087 4.3 3.5 0.867 1.42 1.3 3.097 1.3 5.03v0c0 2.1-0.677 3.957-2.03 5.57-1.347 1.62-3.227 2.97-5.64 4.05-2.42 1.087-5.22 1.907-8.4 2.46-3.187 0.547-6.613 0.82-10.28 0.82v0c-4.067 0-7.767-0.3-11.1-0.9-3.333-0.6-6.167-1.527-8.5-2.78-2.333-1.247-4.073-2.853-5.22-4.82-1.153-1.967-1.613-4.317-1.38-7.05v0l21.35-1.45c-0.267 1-0.193 1.833 0.22 2.5 0.42 0.667 1.08 1.167 1.98 1.5 0.9 0.333 1.9 0.5 3 0.5v0c0.667 0 1.277-0.05 1.83-0.15 0.547-0.1 1.037-0.25 1.47-0.45 0.433-0.2 0.767-0.46 1-0.78 0.233-0.313 0.35-0.67 0.35-1.07v0c0-0.8-0.407-1.317-1.22-1.55-0.82-0.233-2.013-0.35-3.58-0.35v0c-0.067 0-0.14 0-0.22 0-0.087 0-0.17 0-0.25 0-0.087 0-0.18 0-0.28 0-0.1 0-0.19 0-0.27 0-0.087 0-0.163 0-0.23 0v0c-4.933 0-9.033-0.26-12.3-0.78-3.267-0.513-5.85-1.237-7.75-2.17-1.9-0.933-3.25-2.043-4.05-3.33-0.8-1.28-1.2-2.72-1.2-4.32v0c0-1.7 0.45-3.243 1.35-4.63 0.9-1.38 2.173-2.597 3.82-3.65 1.653-1.047 3.587-1.92 5.8-2.62 2.22-0.7 4.657-1.233 7.31-1.6 2.647-0.367 5.42-0.55 8.32-0.55v0c4.1 0 7.777 0.367 11.03 1.1 3.247 0.733 5.98 1.783 8.2 3.15 2.213 1.367 3.803 3 4.77 4.9 0.967 1.9 1.2 4.033 0.7 6.4v0l-20.65 0.95c0.367-0.967 0.35-1.76-0.05-2.38-0.4-0.613-1.027-1.063-1.88-1.35-0.847-0.28-1.803-0.42-2.87-0.42v0c-0.667 0-1.267 0.057-1.8 0.17-0.533 0.12-0.993 0.287-1.38 0.5-0.38 0.22-0.677 0.48-0.89 0.78-0.22 0.3-0.33 0.617-0.33 0.95v0c0 0.4 0.133 0.723 0.4 0.97 0.267 0.253 0.677 0.43 1.23 0.53 0.547 0.1 1.27 0.15 2.17 0.15v0c0.067 0 0.14 0 0.22 0 0.087 0 0.17 0 0.25 0 0.087 0 0.17 0 0.25 0 0.087 0 0.17 0 0.25 0 0.087 0 0.18 0 0.28 0z" fill="#000000" fill-rule="nonzero" stroke="none" stroke-width="1" stroke-linecap="butt" stroke-linejoin="miter" stroke-miterlimit="10" stroke-dasharray="" stroke-dashoffset="0" font-family="none" font-weight="none" font-size="none" text-anchor="none" style="mix-blend-mode: normal" data-fill-palette-color="primary" opacity="1"></path><path transform="translate(172.85,87)" d="M1-37.5h29.8c3.133 0 5.91 0.34 8.33 1.02 2.413 0.687 4.487 1.63 6.22 2.83 1.733 1.2 3.15 2.59 4.25 4.17 1.1 1.587 1.917 3.28 2.45 5.08 0.533 1.8 0.8 3.633 0.8 5.5v0c0 2.367-0.423 4.673-1.27 6.92-0.853 2.253-2.17 4.28-3.95 6.08-1.787 1.8-4.07 3.233-6.85 4.3-2.787 1.067-6.113 1.6-9.98 1.6v0h-29.8c0-2.133 0-4.26 0-6.38 0-2.113 0-4.23 0-6.35 0-2.113 0-4.227 0-6.34 0-2.12 0-4.247 0-6.38v0c0-2 0-4.01 0-6.03 0-2.013 0-4.02 0-6.02zM26.8-23.1v0h-5.95c0 0-0.007 0-0.02 0-0.02 0-0.03 0-0.03 0 0 0 0 0.007 0 0.02 0 0.02 0 0.047 0 0.08v0 8.5c0 0.033 0 0.057 0 0.07 0 0.02 0 0.03 0 0.03 0 0 0.01 0 0.03 0 0.013 0 0.02 0 0.02 0v0h6.05c0.733 0 1.393-0.117 1.98-0.35 0.58-0.233 1.07-0.55 1.47-0.95 0.4-0.4 0.71-0.867 0.93-1.4 0.213-0.533 0.32-1.083 0.32-1.65v0c0-0.8-0.19-1.533-0.57-2.2-0.387-0.667-0.93-1.193-1.63-1.58-0.7-0.38-1.567-0.57-2.6-0.57zM61.45-37.5h31.05c0.6 2.067 1.193 4.14 1.78 6.22 0.58 2.087 1.163 4.17 1.75 6.25 0.58 2.087 1.17 4.17 1.77 6.25 0.6 2.087 1.193 4.17 1.78 6.25 0.58 2.087 1.163 4.17 1.75 6.25 0.58 2.087 1.17 4.18 1.77 6.28v0h-22.3l-0.85-4.9c-0.133 0-0.25 0-0.35 0-0.1 0-0.217 0-0.35 0v0h-5.5c-0.1 0-0.2 0-0.3 0-0.1 0-0.2 0-0.3 0v0l-0.85 4.9h-21.35c0.6-2.1 1.193-4.193 1.78-6.28 0.58-2.08 1.163-4.163 1.75-6.25 0.58-2.08 1.163-4.163 1.75-6.25 0.58-2.08 1.163-4.163 1.75-6.25 0.58-2.08 1.163-4.163 1.75-6.25 0.58-2.08 1.153-4.153 1.72-6.22zM73.75-8.45v0c0 0.033 0 0.05 0 0.05 0 0 0.017 0 0.05 0v0h5.5c0.033 0 0.05-0.01 0.05-0.03 0-0.013 0-0.02 0-0.02v0 0c0 0-0.067-0.41-0.2-1.23-0.133-0.813-0.307-1.847-0.52-3.1-0.22-1.247-0.447-2.58-0.68-4-0.233-1.413-0.45-2.753-0.65-4.02-0.2-1.267-0.373-2.3-0.52-3.1-0.153-0.8-0.23-1.2-0.23-1.2v0c0 0-0.007 0-0.02 0-0.02 0-0.03 0-0.03 0v0c0 0-0.067 0.4-0.2 1.2-0.133 0.8-0.307 1.833-0.52 3.1-0.22 1.267-0.447 2.607-0.68 4.02-0.233 1.42-0.45 2.753-0.65 4-0.2 1.253-0.367 2.287-0.5 3.1-0.133 0.82-0.2 1.23-0.2 1.23zM127.3-37.5v0h22.7c-1.833 3.333-3.667 6.667-5.5 10-1.833 3.333-3.673 6.667-5.52 10-1.853 3.333-3.697 6.667-5.53 10v0 0 0 0 7.5h-20.75v-7.55 0 0 0c-1.167-2-2.323-4-3.47-6-1.153-2-2.303-4-3.45-6-1.153-2-2.313-3.993-3.48-5.98-1.167-1.98-2.323-3.97-3.47-5.97-1.153-2-2.313-4-3.48-6v0h24c0.433 1.6 0.86 3.2 1.28 4.8 0.413 1.6 0.837 3.2 1.27 4.8 0.433 1.6 0.85 3.2 1.25 4.8v0c0 0 0.01 0.007 0.03 0.02 0.013 0.02 0.02 0.03 0.02 0.03 0 0 0.01-0.01 0.03-0.03 0.013-0.013 0.02-0.02 0.02-0.02v0c0.333-1.2 0.667-2.4 1-3.6 0.333-1.2 0.677-2.4 1.03-3.6 0.347-1.2 0.687-2.4 1.02-3.6 0.333-1.2 0.667-2.4 1-3.6zM173.4 1.5v0c-2.633 0-5.067-0.167-7.3-0.5-2.233-0.333-4.29-0.817-6.17-1.45-1.887-0.633-3.57-1.4-5.05-2.3-1.487-0.9-2.797-1.917-3.93-3.05-1.133-1.133-2.073-2.377-2.82-3.73-0.753-1.347-1.313-2.787-1.68-4.32-0.367-1.533-0.55-3.15-0.55-4.85v0c0-2.767 0.45-5.25 1.35-7.45 0.9-2.2 2.177-4.1 3.83-5.7 1.647-1.6 3.61-2.933 5.89-4 2.287-1.067 4.813-1.86 7.58-2.38 2.767-0.513 5.717-0.77 8.85-0.77v0c5.533 0 10.233 0.667 14.1 2 3.867 1.333 6.927 3.25 9.18 5.75 2.247 2.5 3.653 5.533 4.22 9.1v0l-21.25 3.45c0-0.767-0.167-1.427-0.5-1.98-0.333-0.547-0.783-0.987-1.35-1.32-0.567-0.333-1.223-0.583-1.97-0.75-0.753-0.167-1.563-0.25-2.43-0.25v0c-1.2 0-2.267 0.157-3.2 0.47-0.933 0.32-1.673 0.787-2.22 1.4-0.553 0.62-0.83 1.397-0.83 2.33v0c0 0.567 0.1 1.083 0.3 1.55 0.2 0.467 0.483 0.873 0.85 1.22 0.367 0.353 0.81 0.637 1.33 0.85 0.513 0.22 1.087 0.387 1.72 0.5 0.633 0.12 1.317 0.18 2.05 0.18v0c1.767 0 3.25-0.36 4.45-1.08 1.2-0.713 1.8-1.753 1.8-3.12v0l21.25 2.15c-0.367 2.467-1.173 4.783-2.42 6.95-1.253 2.167-2.987 4.083-5.2 5.75-2.22 1.667-4.97 2.977-8.25 3.93-3.287 0.947-7.163 1.42-11.63 1.42zM210.1-37.5h31.05c0.6 2.067 1.193 4.14 1.78 6.22 0.58 2.087 1.163 4.17 1.75 6.25 0.58 2.087 1.17 4.17 1.77 6.25 0.6 2.087 1.19 4.17 1.77 6.25 0.587 2.087 1.17 4.17 1.75 6.25 0.587 2.087 1.18 4.18 1.78 6.28v0h-22.3l-0.85-4.9c-0.133 0-0.25 0-0.35 0-0.1 0-0.217 0-0.35 0v0h-5.5c-0.1 0-0.2 0-0.3 0-0.1 0-0.2 0-0.3 0v0l-0.85 4.9h-21.35c0.6-2.1 1.193-4.193 1.78-6.28 0.58-2.08 1.163-4.163 1.75-6.25 0.58-2.08 1.163-4.163 1.75-6.25 0.58-2.08 1.163-4.163 1.75-6.25 0.58-2.08 1.163-4.163 1.75-6.25 0.58-2.08 1.153-4.153 1.72-6.22zM222.4-8.45v0c0 0.033 0 0.05 0 0.05 0 0 0.017 0 0.05 0v0h5.5c0.033 0 0.05-0.01 0.05-0.03 0-0.013 0-0.02 0-0.02v0 0c0 0-0.067-0.41-0.2-1.23-0.133-0.813-0.307-1.847-0.52-3.1-0.22-1.247-0.447-2.58-0.68-4-0.233-1.413-0.45-2.753-0.65-4.02-0.2-1.267-0.373-2.3-0.52-3.1-0.153-0.8-0.23-1.2-0.23-1.2v0c0 0-0.007 0-0.02 0-0.02 0-0.03 0-0.03 0v0c0 0-0.067 0.4-0.2 1.2-0.133 0.8-0.307 1.833-0.52 3.1-0.22 1.267-0.447 2.607-0.68 4.02-0.233 1.42-0.45 2.753-0.65 4-0.2 1.253-0.367 2.287-0.5 3.1-0.133 0.82-0.2 1.23-0.2 1.23zM252.85-37.5v0h36.15c2.933 0 5.367 0.523 7.3 1.57 1.933 1.053 3.383 2.403 4.35 4.05 0.967 1.653 1.45 3.397 1.45 5.23v0c0 1.9-0.527 3.74-1.58 5.52-1.047 1.787-2.63 3.247-4.75 4.38-2.113 1.133-4.753 1.7-7.92 1.7v0c-0.133 0-0.467 0-1 0-0.533 0-1.073 0-1.62 0-0.553 0-0.913 0-1.08 0v0c0 0 0 0.017 0 0.05 0 0.033 0 0.05 0 0.05v0c0 0 0 0.007 0 0.02 0 0.02 0 0.037 0 0.05 0 0.02 0 0.03 0 0.03v0h11.35l7.7 14.85h-23.75c-0.633-1.7-1.277-3.4-1.93-5.1-0.647-1.7-1.297-3.4-1.95-5.1-0.647-1.7-1.303-3.4-1.97-5.1v0h5.8c0.667 0 1.26-0.1 1.78-0.3 0.513-0.2 0.937-0.467 1.27-0.8 0.333-0.333 0.583-0.71 0.75-1.13 0.167-0.413 0.25-0.837 0.25-1.27v0c0-0.6-0.15-1.167-0.45-1.7-0.3-0.533-0.75-0.967-1.35-1.3-0.6-0.333-1.35-0.5-2.25-0.5v0h-5.7c0 0-0.007 0.007-0.02 0.02-0.02 0.02-0.037 0.03-0.05 0.03-0.02 0-0.03 0.017-0.03 0.05v0c0 2.167 0 3.757 0 4.77 0 1.02 0 1.653 0 1.9 0 0.253 0 0.347 0 0.28v0c0 0 0 0.173 0 0.52 0 0.353 0 0.83 0 1.43 0 0.6 0 1.283 0 2.05v0c0 1.1 0 2.317 0 3.65 0 1.333 0 2.657 0 3.97 0 1.32 0 2.53 0 3.63v0h-20.75c0-2.133 0-4.277 0-6.43 0-2.147 0-4.287 0-6.42 0-2.133 0-4.277 0-6.43 0-2.147 0-4.287 0-6.42v0c0-1.967 0-3.933 0-5.9 0-1.967 0-3.933 0-5.9zM346.4-37.5v12.6h-21.75c-0.033 0-0.05 0-0.05 0v0 0 2.75c0 0.033 0 0.057 0 0.07 0 0.02 0 0.03 0 0.03 0 0 0.01 0 0.03 0 0.013 0 0.02 0 0.02 0v0h21v7.05h-21c0 0-0.007 0-0.02 0-0.02 0-0.03 0.007-0.03 0.02 0 0.02 0 0.047 0 0.08v0 2.8 0 0c0 0 0.01 0 0.03 0 0.013 0 0.02 0 0.02 0v0h22.05v12.1h-42.35c0-1.967 0-3.943 0-5.93 0-1.98 0-3.953 0-5.92 0-1.967 0-3.943 0-5.93 0-1.98 0-3.963 0-5.95 0-1.98 0-3.953 0-5.92v0c0-1.3 0-2.61 0-3.93 0-1.313 0-2.62 0-3.92v0z" fill="#000000" fill-rule="nonzero" stroke="none" stroke-width="1" stroke-linecap="butt" stroke-linejoin="miter" stroke-miterlimit="10" stroke-dasharray="" stroke-dashoffset="0" font-family="none" font-weight="none" font-size="none" text-anchor="none" style="mix-blend-mode: normal" data-fill-palette-color="primary" opacity="1"></path></g></svg></g></svg></g></svg></g></svg></g><g transform="matrix(1,0,0,1,66.7328334532832,0)"><svg viewBox="0 0 262.05433309343357 262.05433309343357" height="262.05433309343357" width="262.05433309343357"><g><svg></svg></g><g id="icon-0"><svg viewBox="0 0 262.05433309343357 262.05433309343357" height="262.05433309343357" width="262.05433309343357"><g><path transform="scale(2.62054,2.62054)" d="M30 100c-16.569 0-30-13.431-30-30v-40c0-16.569 13.431-30 30-30h40c16.569 0 30 13.431 30 30v40c0 16.569-13.431 30-30 30z" fill="#000000" fill-rule="nonzero" stroke="none" stroke-width="1" stroke-linecap="butt" stroke-linejoin="miter" stroke-miterlimit="10" stroke-dasharray="" stroke-dashoffset="0" font-family="none" font-weight="none" font-size="none" text-anchor="none" style="mix-blend-mode: normal" data-fill-palette-color="accent"></path></g><g transform="matrix(1,0,0,1,52.41086661868671,52.41086661868671)"><svg viewBox="0 0 157.23259985606015 157.23259985606015" height="157.23259985606015" width="157.23259985606015"><g><svg xmlns="http://www.w3.org/2000/svg" xmlns:xlink="http://www.w3.org/1999/xlink" version="1.1" x="0" y="0" viewBox="0 0 26 26" style="enable-background:new 0 0 26 26;" xml:space="preserve" height="157.23259985606015" width="157.23259985606015" class="icon-cg-0" data-fill-palette-color="quaternary" id="cg-0"><g fill="#d62176" data-fill-palette-color="quaternary"><path d="M13 0C5.82 0 0 5.82 0 13s5.82 13 13 13c7.18 0 13-5.82 13-13S20.18 0 13 0zM11.248 20.07c-1.171 1.172-3.155 1.087-5.303-1.06C3.798 16.862 4.178 13 4.178 13s3.862-0.38 6.01 1.768C12.335 16.915 12.42 18.899 11.248 20.07zM10 9.5C10 6.463 13 4 13 4s3 2.463 3 5.5S14.656 14 13 14C11.344 14 10 12.537 10 9.5zM20.055 19.01c-2.148 2.147-4.132 2.232-5.303 1.06-1.172-1.171-1.087-3.155 1.06-5.303C17.96 12.62 21.822 13 21.822 13S22.202 16.862 20.055 19.01z" fill="#ffffff" data-fill-palette-color="quaternary"></path></g></svg></g></svg></g></svg></g></svg></g><g></g></svg></g><defs></defs></svg><rect width="231.52385403589156" height="247.2" fill="none" stroke="none" visibility="hidden"></rect></g></svg></g></svg>